<svg width="1109" height="349" viewBox="0 0 1109 349" fill="none" xmlns="http://www.w3.org/2000/svg">
<path d="M11.6864 9.07292L2.92779 0.314426C2.72521 0.111689 2.45479 0 2.16644 0C1.8781 0 1.60768 0.111689 1.4051 0.314426L0.760087 0.95928C0.340372 1.37948 0.340372 2.06241 0.760087 2.48197L4.57941 6.30129C6.53203 8.25391 6.53203 11.4197 4.57941 13.3724L0.751926 17.1998C0.549349 17.4026 0.4375 17.6728 0.4375 17.961C0.4375 18.2495 0.549349 18.5198 0.751926 18.7227L1.39694 19.3674C1.59968 19.5701 1.86994 19.6818 2.15828 19.6818C2.44663 19.6818 2.71705 19.5701 2.91963 19.3674L11.6864 10.6009C11.8895 10.3975 12.001 10.126 12.0004 9.8373C12.001 9.54752 11.8895 9.27614 11.6864 9.07292Z" fill="#495057"/>
<path d="M432.249 9.07292L423.49 0.314426C423.288 0.111689 423.017 0 422.729 0C422.441 0 422.17 0.111689 421.968 0.314426L421.323 0.95928C420.903 1.37948 420.903 2.06241 421.323 2.48197L425.142 6.30129C427.095 8.25391 427.095 11.4197 425.142 13.3724L421.314 17.1998C421.112 17.4026 421 17.6728 421 17.961C421 18.2495 421.112 18.5198 421.314 18.7227L421.959 19.3674C422.162 19.5701 422.432 19.6818 422.721 19.6818C423.009 19.6818 423.28 19.5701 423.482 19.3674L432.249 10.6009C432.452 10.3975 432.564 10.126 432.563 9.8373C432.564 9.54752 432.452 9.27614 432.249 9.07292Z" fill="#495057"/>
<path d="M853.249 9.07292L844.49 0.314426C844.288 0.111689 844.017 0 843.729 0C843.441 0 843.17 0.111689 842.968 0.314426L842.323 0.95928C841.903 1.37948 841.903 2.06241 842.323 2.48197L846.142 6.30129C848.095 8.25391 848.095 11.4197 846.142 13.3724L842.314 17.1998C842.112 17.4026 842 17.6728 842 17.961C842 18.2495 842.112 18.5198 842.314 18.7227L842.959 19.3674C843.162 19.5701 843.432 19.6818 843.721 19.6818C844.009 19.6818 844.28 19.5701 844.482 19.3674L853.249 10.6009C853.452 10.3975 853.564 10.126 853.563 9.8373C853.564 9.54752 853.452 9.27614 853.249 9.07292Z" fill="#495057"/>
<path d="M1099.55 180.249L1108.31 171.49C1108.51 171.288 1108.62 171.017 1108.62 170.729C1108.62 170.441 1108.51 170.17 1108.31 169.968L1107.66 169.323C1107.24 168.903 1106.56 168.903 1106.14 169.323L1102.32 173.142C1100.37 175.095 1097.2 175.095 1095.25 173.142L1091.42 169.314C1091.22 169.112 1090.95 169 1090.66 169C1090.37 169 1090.1 169.112 1089.9 169.314L1089.25 169.959C1089.05 170.162 1088.94 170.432 1088.94 170.721C1088.94 171.009 1089.05 171.28 1089.25 171.482L1098.02 180.249C1098.22 180.452 1098.5 180.564 1098.78 180.563C1099.07 180.564 1099.35 180.452 1099.55 180.249Z" fill="#495057"/>
<path d="M654.373 339.55L663.132 348.309C663.334 348.511 663.605 348.623 663.893 348.623C664.181 348.623 664.452 348.511 664.654 348.309L665.299 347.664C665.719 347.244 665.719 346.561 665.299 346.141L661.48 342.322C659.528 340.369 659.528 337.203 661.48 335.251L665.308 331.423C665.51 331.22 665.622 330.95 665.622 330.662C665.622 330.374 665.51 330.103 665.308 329.9L664.663 329.256C664.46 329.053 664.19 328.941 663.901 328.941C663.613 328.941 663.343 329.053 663.14 329.256L654.373 338.022C654.17 338.226 654.059 338.497 654.059 338.786C654.059 339.076 654.17 339.347 654.373 339.55Z" fill="#495057"/>
<path d="M233.314 339.55L242.072 348.309C242.275 348.511 242.545 348.623 242.834 348.623C243.122 348.623 243.392 348.511 243.595 348.309L244.24 347.664C244.66 347.244 244.66 346.561 244.24 346.141L240.421 342.322C238.468 340.369 238.468 337.203 240.421 335.251L244.248 331.423C244.451 331.22 244.563 330.95 244.563 330.662C244.563 330.374 244.451 330.103 244.248 329.9L243.603 329.256C243.4 329.053 243.13 328.941 242.842 328.941C242.553 328.941 242.283 329.053 242.08 329.256L233.314 338.022C233.111 338.226 232.999 338.497 233 338.786C232.999 339.076 233.111 339.347 233.314 339.55Z" fill="#495057"/>
</svg>
