<svg width="111" height="110" viewBox="0 0 111 110" fill="none" xmlns="http://www.w3.org/2000/svg">
<path d="M90.2115 18.1531C88.4163 18.1531 86.6614 17.6207 85.1688 16.6234C83.6762 15.626 82.5127 14.2085 81.8258 12.55C81.1388 10.8915 80.9589 9.06649 81.3091 7.30582C81.6594 5.54514 82.5239 3.9279 83.7933 2.65852C85.0627 1.38915 86.6801 0.524601 88.4408 0.174381C90.2014 -0.175839 92.0264 0.00400776 93.6849 0.690989C95.3435 1.37797 96.7608 2.54123 97.7581 4.03385C98.7555 5.52648 99.2878 7.2814 99.2878 9.07656C99.2842 11.4827 98.3267 13.7892 96.6253 15.4906C94.924 17.192 92.6176 18.1494 90.2115 18.1531ZM90.2115 4.94337C89.3967 4.94337 88.6002 5.185 87.9228 5.63765C87.2454 6.0903 86.7173 6.73361 86.4055 7.48634C86.0937 8.23908 86.0122 9.06747 86.1712 9.86656C86.3301 10.6657 86.7225 11.3996 87.2986 11.9757C87.8747 12.5519 88.6085 12.9442 89.4076 13.1032C90.2067 13.2621 91.0351 13.1804 91.7878 12.8687C92.5405 12.5569 93.184 12.029 93.6367 11.3515C94.0893 10.6741 94.331 9.87757 94.331 9.06282C94.331 7.97027 93.897 6.92245 93.1244 6.1499C92.3519 5.37735 91.304 4.94337 90.2115 4.94337Z" fill="url(#paint0_linear_102_41)"/>
<path d="M51.301 109.735C41.1568 109.737 31.2394 106.732 22.8034 101.098C14.3675 95.464 7.79176 87.4549 3.90784 78.0836C0.0239312 68.7124 -0.993514 58.3999 0.983863 48.4503C2.96124 38.5006 7.84466 29.3608 15.0168 22.1867C22.1889 15.0127 31.3275 10.1267 41.2766 8.14664C51.2257 6.1666 61.5383 7.18151 70.9106 11.0629C80.283 14.9443 88.2939 21.5179 93.93 29.9523C99.5661 38.3867 102.574 48.3031 102.574 58.4473C102.575 60.1119 102.493 61.7755 102.327 63.4319L102.245 64.0911L101.146 70.5311C98.4634 81.7224 92.0825 91.681 83.0367 98.7956C73.9909 105.91 62.8093 109.764 51.301 109.735ZM51.301 26.9473C45.4006 26.9458 39.6184 28.6006 34.6123 31.7237C29.6062 34.8468 25.5773 39.3126 22.9845 44.6128C20.3916 49.9129 19.3387 55.8345 19.9458 61.7036C20.5529 67.5726 22.7955 73.1534 26.4183 77.8106C30.0412 82.4678 34.8988 86.0144 40.4382 88.0467C45.9775 90.079 51.9759 90.5153 57.7511 89.306C63.5262 88.0968 68.8458 85.2905 73.1045 81.2066C77.3631 77.1227 80.3898 71.9251 81.8399 66.2057L82.6773 61.1936C82.7597 60.2874 82.801 59.3674 82.801 58.4473C82.7793 50.0997 79.4534 42.1002 73.5507 36.1975C67.648 30.2948 59.6487 26.9691 51.301 26.9473Z" fill="url(#paint1_linear_102_41)"/>
<g filter="url(#filter0_f_102_41)">
<path d="M90.628 43.7703L100.141 60.2481H81.1145L90.628 43.7703Z" fill="black"/>
</g>
<path d="M89.9687 43.6729L70.6622 71.3556H109.495L89.9687 43.6729Z" fill="url(#paint2_linear_102_41)"/>
<defs>
<filter id="filter0_f_102_41" x="71.0079" y="33.6637" width="39.2402" height="36.6911" filterUnits="userSpaceOnUse" color-interpolation-filters="sRGB">
<feFlood flood-opacity="0" result="BackgroundImageFix"/>
<feBlend mode="normal" in="SourceGraphic" in2="BackgroundImageFix" result="shape"/>
<feGaussianBlur stdDeviation="5.05332" result="effect1_foregroundBlur_102_41"/>
</filter>
<linearGradient id="paint0_linear_102_41" x1="81.1348" y1="9.07654" x2="99.2878" y2="9.07654" gradientUnits="userSpaceOnUse">
<stop stop-color="#2D7CBD"/>
<stop offset="0.22" stop-color="#4F71B5"/>
<stop offset="0.58" stop-color="#8460A9"/>
<stop offset="0.85" stop-color="#A556A2"/>
<stop offset="1" stop-color="#B1529F"/>
</linearGradient>
<linearGradient id="paint1_linear_102_41" x1="0.0274861" y1="58.4612" x2="102.574" y2="58.4612" gradientUnits="userSpaceOnUse">
<stop stop-color="#C0549F"/>
<stop offset="0.09" stop-color="#B757A1"/>
<stop offset="0.24" stop-color="#9D5DA6"/>
<stop offset="0.43" stop-color="#7469AF"/>
<stop offset="0.65" stop-color="#3B78BA"/>
<stop offset="0.7" stop-color="#2D7CBD"/>
<stop offset="1" stop-color="#49A5DC"/>
</linearGradient>
<linearGradient id="paint2_linear_102_41" x1="69.701" y1="60.0821" x2="108.259" y2="56.7865" gradientUnits="userSpaceOnUse">
<stop stop-color="#2D7CBD"/>
<stop offset="0.5" stop-color="#3C93CE"/>
<stop offset="1" stop-color="#49A5DC"/>
</linearGradient>
</defs>
</svg>
